HIERARCHY
ROOT Hips
{
 OFFSET 0.000000 0.000000 0.000000
 CHANNELS 6 Xposition Yposition Zposition Yrotation Xrotation Zrotation
 JOINT Chest
 {
  OFFSET 0.000000 9.585900 0.002600
  CHANNELS 3 Yrotation Xrotation Zrotation
  JOINT Chest2
  {
   OFFSET 0.000000 9.601200 -0.005300
   CHANNELS 3 Yrotation Xrotation Zrotation
   JOINT Chest3
   {
    OFFSET 0.000000 9.561800 0.000000
    CHANNELS 3 Yrotation Xrotation Zrotation
    JOINT Chest4
    {
     OFFSET 0.000000 9.552100 0.000000
     CHANNELS 3 Yrotation Xrotation Zrotation
     JOINT Neck
     {
      OFFSET 0.000000 14.453000 0.000000
      CHANNELS 3 Yrotation Xrotation Zrotation
      JOINT Head
      {
       OFFSET 0.000000 8.936500 -0.011300
       CHANNELS 3 Yrotation Xrotation Zrotation
       End Site
       {
        OFFSET 0.000000 17.073600 -0.006000
       }
      }
     }
     JOINT RightCollar
     {
      OFFSET -2.921100 9.558500 0.000000
      CHANNELS 3 Yrotation Xrotation Zrotation
      JOINT RightShoulder
      {
       OFFSET -13.519700 0.000000 0.000000
       CHANNELS 3 Yrotation Xrotation Zrotation
       JOINT RightElbow
       {
        OFFSET 0.000000 -29.696600 0.000000
        CHANNELS 3 Yrotation Xrotation Zrotation
        JOINT RightWrist
        {
         OFFSET 0.000000 -24.004700 0.000000
         CHANNELS 3 Yrotation Xrotation Zrotation
         End Site
         {
          OFFSET 0.000000 -17.728500 0.000000
         }
        }
       }
      }
     }
     JOINT LeftCollar
     {
      OFFSET 2.921100 9.558500 0.000000
      CHANNELS 3 Yrotation Xrotation Zrotation
      JOINT LeftShoulder
      {
       OFFSET 13.519700 0.000000 0.000000
       CHANNELS 3 Yrotation Xrotation Zrotation
       JOINT LeftElbow
       {
        OFFSET 0.000000 -29.696600 0.000000
        CHANNELS 3 Yrotation Xrotation Zrotation
        JOINT LeftWrist
        {
         OFFSET 0.000000 -24.004700 0.000000
         CHANNELS 3 Yrotation Xrotation Zrotation
         End Site
         {
          OFFSET 0.000000 -17.728500 0.000000
         }
        }
       }
      }
     }
    }
   }
  }
 }
 JOINT RightHip
 {
  OFFSET -7.771700 -0.012900 -0.001300
  CHANNELS 3 Yrotation Xrotation Zrotation
  JOINT RightKnee
  {
   OFFSET 0.000000 -40.869800 0.001200
   CHANNELS 3 Yrotation Xrotation Zrotation
   JOINT RightAnkle
   {
    OFFSET 0.000000 -39.717900 0.002100
    CHANNELS 3 Yrotation Xrotation Zrotation
    JOINT RightToe
    {
     OFFSET 0.000000 -4.965400 11.033500
     CHANNELS 3 Yrotation Xrotation Zrotation
     End Site
     {
      OFFSET 0.000000 -1.423100 5.872300
     }
    }
   }
  }
 }
 JOINT LeftHip
 {
  OFFSET 7.771700 -0.012900 -0.001300
  CHANNELS 3 Yrotation Xrotation Zrotation
  JOINT LeftKnee
  {
   OFFSET 0.000000 -40.869800 0.001200
   CHANNELS 3 Yrotation Xrotation Zrotation
   JOINT LeftAnkle
   {
    OFFSET 0.000000 -39.717900 0.002100
    CHANNELS 3 Yrotation Xrotation Zrotation
    JOINT LeftToe
    {
     OFFSET 0.000000 -4.965400 11.033500
     CHANNELS 3 Yrotation Xrotation Zrotation
     End Site
     {
      OFFSET 0.000000 -1.423100 5.872300
     }
    }
   }
  }
 }
}
MOTION
Frames: 11
Frame Time: 0.008333
-225.056526 57.277734 136.106910 179.356089 -31.672295 -1.708658 0.538432 19.700268 2.043578 -0.038818 2.382469 0.247837 -0.064969 3.931097 0.398468 -0.072595 16.916995 1.737971 -3.134581 21.226872 0.114148 -5.734320 3.662392 1.049862 2.677785 -2.745437 -0.727043 34.196430 -43.349580 -24.097598 -152.221506 -51.903173 -177.750579 -1.027570 -12.993556 -55.509688 -11.102244 -3.606606 -3.479717 -4.039373 -24.835492 -0.200552 -57.493003 -38.047329 23.907492 -14.900820 -8.574412 20.015662 6.499027 -44.193998 -6.210316 -10.676694 67.819661 -13.500194 5.897672 24.005053 4.838045 -0.988878 -16.236945 5.815305 -7.755560 -42.190908 1.663021 30.866292 70.037548 32.994919 -15.329437 2.520458 -5.117929 0.208399 0.489169 0.087820
-225.056778 57.277741 136.108728 179.360128 -31.669259 -1.700986 0.529374 19.702403 2.029916 -0.039879 2.382947 0.246388 -0.062109 3.927014 0.401263 -0.075407 16.920394 1.734007 -3.147247 21.207620 0.082366 -5.729481 3.647223 1.042165 2.682087 -2.749538 -0.724904 34.192713 -43.343035 -24.102400 -152.229688 -51.898624 -177.739842 -1.042255 -12.958064 -55.478011 -11.105629 -3.602741 -3.478799 -4.044344 -24.834157 -0.189403 -57.488623 -38.062617 23.903290 -14.902497 -8.564877 20.017886 6.499650 -44.202288 -6.221531 -10.673812 67.818469 -13.500938 5.898713 24.023127 4.815763 -0.985748 -16.248257 5.835832 -7.763299 -42.192926 1.652826 30.876851 70.035675 33.002579 -15.312713 2.525422 -5.113931 0.176218 0.484595 0.080240
-225.055786 57.277159 136.110464 179.371411 -31.665989 -1.704740 0.516602 19.702605 2.024741 -0.037826 2.385247 0.246550 -0.062685 3.926894 0.400606 -0.076274 16.917296 1.734383 -3.154057 21.195678 0.067805 -5.725896 3.641123 1.035647 2.684474 -2.750899 -0.728800 34.184665 -43.342803 -24.101986 -152.228777 -51.894016 -177.737541 -1.051867 -12.916360 -55.440520 -11.113055 -3.601451 -3.477745 -4.044160 -24.832621 -0.183180 -57.484228 -38.068284 23.904396 -14.899549 -8.556170 20.001053 6.491737 -44.213348 -6.223399 -10.678717 67.818751 -13.506092 5.889851 24.053808 4.790306 -0.989531 -16.269303 5.859942 -7.779916 -42.194445 1.648173 30.872544 70.034635 33.012722 -15.307986 2.523866 -5.132918 0.174837 0.483275 0.081822
-225.055127 57.275685 136.112486 179.372821 -31.659251 -1.701378 0.508602 19.698289 2.016027 -0.037625 2.386510 0.245741 -0.067294 3.927493 0.399056 -0.068592 16.914980 1.736928 -3.160660 21.182288 0.053442 -5.722001 3.636566 1.028055 2.693841 -2.750668 -0.734328 34.176082 -43.343671 -24.101238 -152.230580 -51.890454 -177.737910 -1.057113 -12.869200 -55.397912 -11.115433 -3.601881 -3.478718 -4.047203 -24.829667 -0.178564 -57.483532 -38.071658 23.898487 -14.897905 -8.548497 20.004162 6.495020 -44.226965 -6.228409 -10.697902 67.816732 -13.527335 5.894065 24.072654 4.777091 -0.980476 -16.281040 5.872505 -7.785808 -42.202546 1.643885 30.881337 70.036040 33.028142 -15.305178 2.528433 -5.136387 0.172955 0.475525 0.075396
-225.054164 57.273734 136.114203 179.374872 -31.652292 -1.700133 0.498797 19.694494 2.008748 -0.036285 2.384801 0.245719 -0.063221 3.926576 0.400754 -0.075332 16.915080 1.736381 -3.158238 21.175735 0.044172 -5.727262 3.606738 0.996309 2.701894 -2.755299 -0.740131 34.167831 -43.341197 -24.098559 -152.254389 -51.886110 -177.720074 -1.078517 -12.845825 -55.377961 -11.117587 -3.595906 -3.482412 -4.041253 -24.834902 -0.174600 -57.482589 -38.071507 23.893282 -14.899756 -8.547394 20.005889 6.495841 -44.236789 -6.232433 -10.722826 67.808970 -13.553098 5.908966 24.083372 4.768089 -0.980738 -16.284131 5.884571 -7.790650 -42.211520 1.640270 30.898592 70.037312 33.052167 -15.298701 2.531706 -5.139039 0.167216 0.470232 0.071217
-225.053726 57.271606 136.115270 179.375378 -31.646826 -1.694943 0.489339 19.693021 1.999979 -0.034641 2.383269 0.244072 -0.063255 3.925908 0.400347 -0.076345 16.913800 1.734469 -3.156005 21.169177 0.038187 -5.733777 3.573869 0.966193 2.711024 -2.760185 -0.745996 34.154703 -43.337699 -24.088191 -152.318117 -51.880077 -177.657101 -1.115515 -12.821194 -55.373159 -11.111205 -3.594543 -3.480898 -4.058128 -24.831800 -0.169675 -57.476466 -38.069222 23.894393 -14.899778 -8.548504 20.011326 6.499049 -44.247437 -6.237190 -10.729055 67.810377 -13.564420 5.909149 24.085344 4.754251 -0.975898 -16.283070 5.899064 -7.788423 -42.218961 1.632077 30.911419 70.038540 33.072798 -15.299339 2.535064 -5.143729 0.162543 0.466290 0.070040
-225.053304 57.269643 136.115459 179.379120 -31.643986 -1.691512 0.478253 19.693852 1.992553 -0.036073 2.383152 0.242742 -0.063565 3.925226 0.399845 -0.077730 16.912648 1.732297 -3.165356 21.144612 0.006910 -5.732413 3.520614 0.905651 2.714702 -2.763527 -0.750338 34.154924 -43.340084 -24.090150 -152.337736 -51.871214 -177.641556 -1.136126 -12.763283 -55.338294 -11.106608 -3.590826 -3.476549 -4.071180 -24.833523 -0.169902 -57.468771 -38.071255 23.896679 -14.903697 -8.545184 20.016135 6.481879 -44.257153 -6.227142 -10.726132 67.814699 -13.581420 5.906694 24.083952 4.741326 -0.971042 -16.281081 5.913846 -7.787446 -42.222666 1.624927 30.916650 70.041069 33.085075 -15.300775 2.534110 -5.148854 0.164505 0.464462 0.069566
-225.052856 57.267804 136.115174 179.385501 -31.640755 -1.690018 0.468951 19.692087 1.986947 -0.041818 2.386555 0.243341 -0.063368 3.925020 0.399497 -0.076701 16.912207 1.731330 -3.168257 21.129223 -0.009566 -5.732766 3.493296 0.869495 2.724597 -2.767883 -0.753165 34.130567 -43.349685 -24.093172 -152.320701 -51.858950 -177.649788 -1.157048 -12.705742 -55.296987 -11.108213 -3.589957 -3.471859 -4.080075 -24.831520 -0.173841 -57.461172 -38.071793 23.907919 -14.905873 -8.544550 20.017496 6.466941 -44.264754 -6.224866 -10.706580 67.819704 -13.572334 5.895461 24.078081 4.727671 -0.965400 -16.275041 5.923026 -7.787693 -42.225977 1.617877 30.914147 70.043710 33.089916 -15.299132 2.532605 -5.153985 0.169323 0.464133 0.069672
-225.053072 57.265724 136.115348 179.391879 -31.630484 -1.685169 0.456097 19.688908 1.981117 -0.047947 2.390717 0.248250 -0.058967 3.918680 0.394331 -0.086504 16.911266 1.735595 -3.164502 21.119314 -0.030468 -5.738632 3.459930 0.825955 2.724643 -2.779403 -0.752646 34.140847 -43.340478 -24.099857 -152.332910 -51.848259 -177.635246 -1.206670 -12.583189 -55.186142 -11.109858 -3.585802 -3.476785 -4.069581 -24.835555 -0.180981 -57.459009 -38.072046 23.910758 -14.912449 -8.545487 20.024434 6.457005 -44.278585 -6.232320 -10.685740 67.823702 -13.558775 5.887492 24.073356 4.714685 -0.958102 -16.269299 5.930045 -7.785600 -42.235015 1.604790 30.911696 70.042958 33.094473 -15.286069 2.530730 -5.160117 0.159989 0.465895 0.071806
-225.052977 57.264220 136.115005 179.394498 -31.620492 -1.680753 0.445375 19.684429 1.978746 -0.047401 2.390560 0.246084 -0.065657 3.921812 0.399618 -0.079780 16.903605 1.726678 -3.167614 21.112706 -0.039608 -5.745841 3.426875 0.782033 2.717703 -2.786430 -0.749538 34.142991 -43.340130 -24.097254 -152.357972 -51.842422 -177.611125 -1.256308 -12.481993 -55.098375 -11.114436 -3.583839 -3.478383 -4.076928 -24.820611 -0.175730 -57.457706 -38.081859 23.928544 -14.916019 -8.550202 20.025700 6.448448 -44.290189 -6.244173 -10.679533 67.827090 -13.541442 5.868189 24.055262 4.676170 -0.943841 -16.250131 5.942024 -7.782707 -42.242590 1.597006 30.907046 70.042131 33.095835 -15.285106 2.527263 -5.163329 0.159536 0.466885 0.070603
-225.054902 57.263604 136.113716 179.396430 -31.613671 -1.664188 0.433291 19.684407 1.960895 -0.046132 2.386497 0.245592 -0.069406 3.920427 0.403009 -0.081992 16.906421 1.724875 -3.179483 21.087822 -0.071620 -5.743004 3.408033 0.750768 2.714797 -2.796728 -0.750109 34.149931 -43.338873 -24.094571 -152.390744 -51.843336 -177.584988 -1.303271 -12.398644 -55.019504 -11.109531 -3.587813 -3.484101 -4.079598 -24.815189 -0.172292 -57.456793 -38.087454 23.932981 -14.906857 -8.559418 20.032875 6.449830 -44.295690 -6.270476 -10.677674 67.829865 -13.537107 5.863567 24.031858 4.659343 -0.937049 -16.228764 5.944648 -7.773947 -42.245430 1.568926 30.927572 70.033698 33.119923 -15.282750 2.520870 -5.160351 0.143518 0.471574 0.062905
